<svg width="500" height="500" viewBox="0 0 500 500" xmlns="http://www.w3.org/2000/svg">
<ellipse cx="250" cy="250" rx="250" ry="250" fill="#041e3b"/>
    <path d="M235.62,113.76c-7.17,12.24-13,22.85-13,23.5s15.12,27.1,33.5,58.93c61.14,105.3,66,114.11,65.2,116.56-.48,1.15-18.05,21.39-38.86,44.9S244.39,401.07,244,401.88s12.52,1.48,30.9,1.48h31.37l37.44-42.29c20.69-23.34,37.44-43.09,37.44-43.91,0-2.28-129.91-225.44-131.21-225.61C249.27,91.56,242.93,101.52,235.62,113.76Z" fill="#fff" fill-rule="evenodd"/>
    <path d="M164.88,234c-25.68,44.41-46.3,81.47-46,82.45s17.4,20.77,37.88,44.08L194.19,403h13l13-.17,20.28-23c11.21-12.73,20.69-23.67,20.81-24.48.33-.65-9.92-1.31-22.76-1.31H215L196.1,332.63c-10.4-11.75-19-22.06-19-22.85s14.31-26.12,31.7-56.15l31.71-54.69-13.17-22.89c-7.32-12.56-13.79-22.85-14.47-22.85C212,153.23,190.57,189.63,164.88,234Z" fill="#fff" fill-rule="evenodd"/>
</svg>
