<svg version="1.1" viewBox="0.0 0.0 683.6272965879265 697.5879265091863" fill="none" stroke="none" stroke-linecap="square" stroke-miterlimit="10" xmlns:xlink="http://www.w3.org/1999/xlink" xmlns="http://www.w3.org/2000/svg"><clipPath id="p.0"><path d="m0 0l683.6273 0l0 697.58795l-683.6273 0l0 -697.58795z" clip-rule="nonzero"/></clipPath><g clip-path="url(#p.0)"><path fill="#000000" fill-opacity="0.0" d="m0 0l683.6273 0l0 697.58795l-683.6273 0z" fill-rule="evenodd"/><defs><linearGradient id="p.1" gradientUnits="userSpaceOnUse" gradientTransform="matrix(26.238358154093874 0.0 0.0 26.238358154093874 0.0 0.0)" spreadMethod="pad" x1="0.25818329521105854" y1="0.17150536619872836" x2="0.25283977171945554" y2="26.409862976179976"><stop offset="0.0" stop-color="#0b5394"/><stop offset="1.0" stop-color="#cfe2f3"/></linearGradient></defs><path fill="url(#p.1)" d="m6.774278 348.79398l0 0c0 -190.07294 150.00224 -344.1575 335.03937 -344.1575l0 0c88.85794 0 174.07654 36.259346 236.90857 100.80139c62.832092 64.542046 98.1308 152.07986 98.1308 243.35611l0 0c0 190.0729 -150.00226 344.15744 -335.03937 344.15744l0 0c-185.03714 0 -335.03937 -154.08453 -335.03937 -344.15744z" fill-rule="evenodd"/><path stroke="#000000" stroke-width="1.0" stroke-linejoin="round" stroke-linecap="butt" d="m6.774278 348.79398l0 0c0 -190.07294 150.00224 -344.1575 335.03937 -344.1575l0 0c88.85794 0 174.07654 36.259346 236.90857 100.80139c62.832092 64.542046 98.1308 152.07986 98.1308 243.35611l0 0c0 190.0729 -150.00226 344.15744 -335.03937 344.15744l0 0c-185.03714 0 -335.03937 -154.08453 -335.03937 -344.15744z" fill-rule="evenodd"/><path fill="#000000" d="m367.8078 297.32706q0 16.8125 -5.859375 31.171875q-5.859375 14.359375 -16.390625 24.90625q-13.09375 13.078125 -30.9375 19.625q-17.828125 6.53125 -45.015625 6.53125l-33.65625 0l0 94.3125l-33.640625 0l0 -253.01561l68.65625 0q22.765625 0 38.5625 3.828125q15.8125 3.8125 28.046875 11.96875q14.4375 9.6875 22.328125 24.14061q7.90625 14.4375 7.90625 36.53125zm-35.0 0.84375q0 -13.078125 -4.59375 -22.765625q-4.578125 -9.6875 -13.921875 -15.796875q-8.15625 -5.2812347 -18.609375 -7.5624847q-10.453125 -2.296875 -26.421875 -2.296875l-33.3125 0l0 101.093735l28.375 0q20.390625 0 33.140625 -3.640625q12.75 -3.65625 20.734375 -11.640625q7.984375 -8.15625 11.296875 -17.15625q3.3125 -9.015625 3.3125 -20.234375zm175.35352 174.0q-9.0 2.390625 -19.625 3.90625q-10.609375 1.53125 -18.9375 1.53125q-29.0625 0 -44.1875 -15.625q-15.125 -15.640625 -15.125 -50.125l0 -100.9375l-21.578125 0l0 -26.84375l21.578125 0l0 -54.54686l31.953125 0l0 54.54686l65.921875 0l0 26.84375l-65.921875 0l0 86.484375q0 14.953125 0.671875 23.375q0.6875 8.40625 4.765625 15.703125q3.734375 6.796875 10.28125 9.953125q6.546875 3.140625 19.96875 3.140625q7.8125 0 16.296875 -2.296875q8.5 -2.296875 12.25 -3.828125l1.6875 0l0 28.71875z" fill-rule="nonzero"/><defs><linearGradient id="p.2" gradientUnits="userSpaceOnUse" gradientTransform="matrix(11.879763508599638 0.0 0.0 11.879763508599638 0.0 0.0)" spreadMethod="pad" x1="11.35246450725479" y1="1.8202693553561924" x2="11.350044563494189" y2="13.700032617480893"><stop offset="0.0" stop-color="#ffffff"/><stop offset="1.0" stop-color="#ffffff" stop-opacity="0.0"/></linearGradient></defs><path fill="url(#p.2)" d="m134.86458 162.75316l0 0c1.1983643 -78.089455 93.39377 -140.978 206.77296 -141.04445c113.37921 -0.06645203 205.72983 62.713924 207.12112 140.80186z" fill-rule="evenodd"/></g></svg>